<?xml version="1.0" encoding="UTF-8"?>
<svg width="24px" height="24px" viewBox="0 0 24 24" version="1.1" xmlns="http://www.w3.org/2000/svg" xmlns:xlink="http://www.w3.org/1999/xlink">
    <title>Artboard</title>
    <g id="Artboard" stroke="none" stroke-width="1" fill="none" fill-rule="evenodd">
        <path d="M17.8742837,6.4038626 C18.7328871,6.4038626 18.7328871,6.94989112 18.7801256,7.11369629 C18.8459508,7.3419527 18.7921073,7.54596633 18.6561621,7.70797951 L10.951249,16.8903374 C10.8202654,17.1262063 10.4515519,17.5174741 10.2719473,17.6989675 L5.41897466,12.4603317 C5.29472403,12.3122556 5.24225591,12.1278353 5.25786948,11.9493714 C5.27348305,11.7709074 5.37506141,11.525395 5.52314628,11.4011371 C5.74992231,11.2108714 5.83002041,11.1786592 6.11255128,11.1786592 C6.39508215,11.1786592 6.53926028,11.2404582 6.6755352,11.4011371 C8.18592324,13.1820038 9.55816463,14.4358758 10.2719473,15.2863352 C11.5126016,13.8249899 13.715062,10.9869839 17.3996686,6.64827983 C17.5242664,6.50154648 17.696417,6.41889617 17.8742837,6.4038626 Z" id="Combined-Shape" fill="#FFFFFF"></path>
    </g>
</svg>