<svg width="11" height="18" viewBox="0 0 11 18" fill="none" xmlns="http://www.w3.org/2000/svg">
<path fill-rule="evenodd" clip-rule="evenodd" d="M10.3293 1.30037C10.4409 1.41197 10.4967 1.54032 10.4967 1.68541C10.4967 1.8305 10.4409 1.95885 10.3293 2.07046L3.75007 8.6497L10.3293 15.2289C10.4409 15.3405 10.4967 15.4689 10.4967 15.614C10.4967 15.7591 10.4409 15.8874 10.3293 15.999L9.49226 16.8361C9.38065 16.9477 9.2523 17.0035 9.10721 17.0035C8.96212 17.0035 8.83378 16.9477 8.72217 16.8361L0.920829 9.03474C0.809222 8.92313 0.753418 8.79478 0.753418 8.64969C0.753418 8.50461 0.809222 8.37626 0.920829 8.26465L8.72217 0.463309C8.83378 0.351702 8.96212 0.295898 9.10721 0.295898C9.2523 0.295898 9.38065 0.351702 9.49226 0.463309L10.3293 1.30037Z" fill="#101213"/>
</svg>
