<svg width="10" height="18" viewBox="0 0 10 18" fill="none" xmlns="http://www.w3.org/2000/svg">
<path fill-rule="evenodd" clip-rule="evenodd" d="M9.79367 8.26465C9.90528 8.37625 9.96108 8.5046 9.96108 8.64969C9.96108 8.79478 9.90528 8.92313 9.79367 9.03474L1.99233 16.8361C1.88072 16.9477 1.75237 17.0035 1.60728 17.0035C1.46219 17.0035 1.33385 16.9477 1.22224 16.8361L0.385184 15.999C0.273577 15.8874 0.217773 15.7591 0.217773 15.614C0.217773 15.4689 0.273577 15.3405 0.385184 15.2289L6.96442 8.64969L0.385184 2.07045C0.273577 1.95885 0.217773 1.8305 0.217773 1.68541C0.217773 1.54032 0.273577 1.41197 0.385184 1.30036L1.22224 0.463309C1.33385 0.351702 1.46219 0.295898 1.60728 0.295898C1.75237 0.295898 1.88072 0.351702 1.99233 0.463309L9.79367 8.26465Z" fill="#101213"/>
</svg>
