<svg width="30" height="24" viewBox="0 0 30 24" fill="none" xmlns="http://www.w3.org/2000/svg">
<path fill-rule="evenodd" clip-rule="evenodd" d="M30 7.60046V20.8929C30 21.6295 29.7378 22.26 29.2132 22.7846C28.6887 23.3091 28.0581 23.5714 27.3215 23.5714H2.67857C1.94196 23.5714 1.31138 23.3091 0.78683 22.7846C0.262277 22.26 0 21.6295 0 20.8929V7.60046C0.491071 8.14733 1.05469 8.63282 1.69085 9.05693C5.73103 11.8025 8.50447 13.7277 10.0112 14.8326C10.6473 15.3013 11.1635 15.6669 11.5597 15.9291C11.9559 16.1914 12.4833 16.4593 13.1417 16.7327C13.8002 17.0061 14.4141 17.1429 14.9833 17.1429H15H15.0167C15.5859 17.1429 16.1998 17.0061 16.8583 16.7327C17.5167 16.4593 18.0441 16.1914 18.4403 15.9291C18.8365 15.6669 19.3527 15.3013 19.9888 14.8326C21.8862 13.4598 24.6652 11.5346 28.3259 9.05693C28.9621 8.62166 29.5201 8.13617 30 7.60046H30ZM30 2.67858C30 3.56027 29.7266 4.4029 29.1797 5.20648C28.6329 6.01005 27.9521 6.69643 27.1373 7.26563C22.9409 10.1786 20.3293 11.9922 19.3025 12.7065C19.1909 12.7846 18.9537 12.9548 18.591 13.2171C18.2283 13.4794 17.9269 13.6914 17.687 13.8532C17.447 14.0151 17.1569 14.1964 16.8164 14.3973C16.476 14.5982 16.1552 14.7489 15.8538 14.8493C15.5525 14.9498 15.2735 15 15.0168 15H15H14.9833C14.7266 15 14.4476 14.9498 14.1462 14.8493C13.8449 14.7489 13.524 14.5982 13.1836 14.3973C12.8432 14.1964 12.5531 14.0151 12.3131 13.8532C12.0731 13.6914 11.7718 13.4794 11.4091 13.2171C11.0464 12.9548 10.8092 12.7846 10.6976 12.7065C9.68196 11.9922 8.2199 10.9738 6.31142 9.65123C4.40294 8.32868 3.25897 7.53348 2.8795 7.26563C2.18754 6.79688 1.53463 6.15235 0.920794 5.33204C0.306954 4.51172 3.48e-05 3.75 3.48e-05 3.04688C3.48e-05 2.17634 0.231619 1.4509 0.694789 0.870536C1.15796 0.290179 1.81923 0 2.67861 0H27.3215C28.047 0 28.6747 0.262277 29.2049 0.78683C29.735 1.31138 30.0001 1.94196 30.0001 2.67857L30 2.67858Z" fill="#101213"/>
</svg>
